<svg width="700" height="420" viewBox="0 0 700 420" xmlns="http://www.w3.org/2000/svg">
  <defs>
    <rect id="bg" width="700" height="420" fill="#0a0a0f"/>

    <filter id="glowPrimary" x="-150%" y="-150%" width="400%" height="400%">
      <feGaussianBlur stdDeviation="5" result="blur1"/>
      <feGaussianBlur in="SourceGraphic" stdDeviation="16" result="blur2"/>
      <feMerge>
        <feMergeNode in="blur2"/>
        <feMergeNode in="blur1"/>
        <feMergeNode in="SourceGraphic"/>
      </feMerge>
    </filter>

    <filter id="glowAccent" x="-150%" y="-150%" width="400%" height="400%">
      <feGaussianBlur stdDeviation="5" result="blur1"/>
      <feGaussianBlur in="SourceGraphic" stdDeviation="16" result="blur2"/>
      <feMerge>
        <feMergeNode in="blur2"/>
        <feMergeNode in="blur1"/>
        <feMergeNode in="SourceGraphic"/>
      </feMerge>
    </filter>

    <filter id="softGlowPrimary" x="-80%" y="-80%" width="260%" height="260%">
      <feGaussianBlur stdDeviation="3"/>
    </filter>

    <filter id="softGlowAccent" x="-80%" y="-80%" width="260%" height="260%">
      <feGaussianBlur stdDeviation="3"/>
    </filter>
  </defs>

  <use href="#bg"/>

  <!-- ================= EYEBROW: typing effect ================= -->
  <g transform="translate(40, 60)">
    <clipPath id="typeClip">
      <rect x="0" y="-14" width="0" height="28">
        <animate
          attributeName="width"
          values="0;0;214.7;214.7;214.7;0;0"
          keyTimes="0;0.05;0.25;0.55;0.7;0.95;1"
          dur="5.5s"
          begin="0.8s"
          repeatCount="indefinite"
        />
      </rect>
    </clipPath>

    <g clip-path="url(#typeClip)" opacity="0">
      <animate attributeName="opacity" from="0" to="1" dur="0.6s" begin="0.2s" fill="freeze"/>
      <g transform="translate(0,0) scale(0.014,-0.014)"><path d="M507 350V275H32V350Z" fill="#f40bf4" /></g>
<g transform="translate(19.520000000000003,0) scale(0.014,-0.014)"><path d="M281 272H177V0H90V700H279Q364 700 407.5 662.5Q451 625 451 544V430Q451 349 408.0 310.5Q365 272 281 272ZM291 625H177V347H291Q329 347 346.5 364.5Q364 382 364 420V553Q364 591 346.5 608.0Q329 625 291 625Z" fill="#f40bf4" /></g>
<g transform="translate(29.280000000000005,0) scale(0.014,-0.014)"><path d="M223 0V325L44 700H140L272 409L404 700H495L313 325V0Z" fill="#f40bf4" /></g>
<g transform="translate(39.040000000000006,0) scale(0.014,-0.014)"><path d="M226 0V624H67V700H472V624H313V0Z" fill="#f40bf4" /></g>
<g transform="translate(48.80000000000001,0) scale(0.014,-0.014)"><path d="M167 322V0H80V700H167V396H373V700H460V0H373V322Z" fill="#f40bf4" /></g>
<g transform="translate(58.56000000000002,0) scale(0.014,-0.014)"><path d="M290 0H250Q163 0 116.5 42.5Q70 85 70 170V530Q70 615 116.5 657.5Q163 700 250 700H290Q377 700 423.5 657.5Q470 615 470 530V170Q470 85 423.5 42.5Q377 0 290 0ZM300 624H240Q203 624 180.0 602.0Q157 580 157 549V151Q157 120 180.0 98.0Q203 76 240 76H300Q337 76 360.0 98.0Q383 120 383 151V549Q383 580 360.0 602.0Q337 624 300 624Z" fill="#f40bf4" /></g>
<g transform="translate(68.32000000000002,0) scale(0.014,-0.014)"><path d="M160 0H79V700H221L379 74V700H460V0H317L160 626Z" fill="#f40bf4" /></g>
<g transform="translate(87.84000000000003,0) scale(0.014,-0.014)"><path d="M320 360V260H220V360Z" fill="#f40bf4" /></g>
<g transform="translate(107.36000000000004,0) scale(0.014,-0.014)"><path d="M310 235H227L129 628V0H53V700H192L272 342L353 700H488V0H410V628Z" fill="#f40bf4" /></g>
<g transform="translate(117.12000000000005,0) scale(0.014,-0.014)"><path d="M202 700V76H425V0H115V700Z" fill="#f40bf4" /></g>
<g transform="translate(126.88000000000005,0) scale(0.014,-0.014)"><path d="M406 810H490L134 -110H50Z" fill="#f40bf4" /></g>
<g transform="translate(136.64000000000004,0) scale(0.014,-0.014)"><path d="M288 0H82V700H276Q366 700 412.0 663.5Q458 627 458 544V158Q458 72 418.5 36.0Q379 0 288 0ZM298 625H169V75H297Q335 75 353.0 92.5Q371 110 371 148V553Q371 586 351.0 605.5Q331 625 298 625Z" fill="#f40bf4" /></g>
<g transform="translate(146.40000000000003,0) scale(0.014,-0.014)"><path d="M202 700V76H425V0H115V700Z" fill="#f40bf4" /></g>
<g transform="translate(165.92000000000002,0) scale(0.014,-0.014)"><path d="M320 360V260H220V360Z" fill="#f40bf4" /></g>
<g transform="translate(185.44,0) scale(0.014,-0.014)"><path d="M268 284 205 0H85L51 700H125L155 75L238 405H300L385 75L416 700H485L451 0H325Z" fill="#f40bf4" /></g>
<g transform="translate(195.2,0) scale(0.014,-0.014)"><path d="M437 700V627H190V398H412V325H190V73H437V0H103V700Z" fill="#f40bf4" /></g>
<g transform="translate(204.95999999999998,0) scale(0.014,-0.014)"><path d="M285 0H85V700H273Q362 700 403.5 664.0Q445 628 445 544V487Q445 410 390 371Q455 335 455 248V158Q455 72 415.5 36.0Q376 0 285 0ZM285 625H172V404H285Q316 404 337.0 424.0Q358 444 358 477V553Q358 591 340.5 608.0Q323 625 285 625ZM295 329H172V75H294Q332 75 350.0 92.5Q368 110 368 148V257Q368 290 348.0 309.5Q328 329 295 329Z" fill="#f40bf4" /></g>
    </g>

    <rect x="0" y="-11" width="2" height="16" fill="#f40bf4">
      <animate attributeName="x" values="0;0;214.7;214.7;214.7;0;0"
        keyTimes="0;0.05;0.25;0.55;0.7;0.95;1" dur="5.5s" begin="0.8s" repeatCount="indefinite"/>
      <animate attributeName="opacity" values="1;0;1" dur="0.8s" begin="0.8s" repeatCount="indefinite"/>
    </rect>
  </g>

  <!-- ================= NAME: AKIF (outline) / ZAHIN (glow) ================= -->
  <g transform="translate(57, 165)" opacity="0">
    <animate attributeName="opacity" from="0" to="1" dur="0.6s" begin="0.2s" fill="freeze"/>
    <g transform="translate(0,0)"><g transform="translate(0,0) scale(0.068,-0.068)"><path d="M58 0V572Q58 613 78.0 646.5Q98 680 132.0 700.0Q166 720 206 720H629Q670 720 703.5 700.0Q737 680 757.5 646.5Q778 613 778 572V0H621V232H213V0H58ZM213 388H621V564Q621 564 621.0 564.0Q621 564 621 564H213Q213 564 213.0 564.0Q213 564 213 564V388Z" fill="rgba(15,210,140,0.877)" stroke="#000000" stroke-width="6" filter="url(#glowAccent)"/></g>
<g transform="translate(58.848000000000006,0) scale(0.068,-0.068)"><path d="M57 0V720H213V438H354L590 720H752V666L495 360L752 54V0H590L354 282H213V0Z" fill="rgba(15,210,140,0.877)" stroke="#000000" stroke-width="6" filter="url(#glowAccent)"/></g>
<g transform="translate(115.04400000000001,0) scale(0.068,-0.068)"><path d="M31 0V720H184V0Z" fill="rgba(15,210,140,0.877)" stroke="#000000" stroke-width="6" filter="url(#glowAccent)"/></g>
<g transform="translate(131.596,0) scale(0.068,-0.068)"><path d="M58 0V720H723V564H215V438H624V282H215V0Z" fill="rgba(15,210,140,0.877)" stroke="#000000" stroke-width="6" filter="url(#glowAccent)"/></g></g>
    <g transform="translate(0,76)"><g transform="translate(0,0) scale(0.068,-0.068)"><path d="M51 0V159L533 564H51V720H771V561L289 156H771V0Z" fill="#f40bf4" stroke="#000000" stroke-width="6" filter="url(#glowPrimary)"/></g>
<g transform="translate(57.828,0) scale(0.068,-0.068)"><path d="M58 0V572Q58 613 78.0 646.5Q98 680 132.0 700.0Q166 720 206 720H629Q670 720 703.5 700.0Q737 680 757.5 646.5Q778 613 778 572V0H621V232H213V0H58ZM213 388H621V564Q621 564 621.0 564.0Q621 564 621 564H213Q213 564 213.0 564.0Q213 564 213 564V388Z" fill="#f40bf4" stroke="#000000" stroke-width="6" filter="url(#glowPrimary)"/></g>
<g transform="translate(116.67600000000002,0) scale(0.068,-0.068)"><path d="M57 0V720H212V438H637V720H792V0H637V282H212V0Z" fill="#f40bf4" stroke="#000000" stroke-width="6" filter="url(#glowPrimary)"/></g>
<g transform="translate(176.544,0) scale(0.068,-0.068)"><path d="M31 0V720H184V0Z" fill="#f40bf4" stroke="#000000" stroke-width="6" filter="url(#glowPrimary)"/></g>
<g transform="translate(193.096,0) scale(0.068,-0.068)"><path d="M56 0V720H216L619 240V720H776V0H616L211 482V0Z" fill="#f40bf4" stroke="#000000" stroke-width="6" filter="url(#glowPrimary)"/></g></g>
  </g>

  <!-- ================= SUBTEXT ================= -->
  <g transform="translate(40, 290)" opacity="0">
    <animate attributeName="opacity" from="0" to="1" dur="0.6s" begin="1s" fill="freeze"/>
    <g transform="translate(0,0) scale(0.018,-0.018)"><path d="M73 0V700H181V400H475V700H583V0H475V302H181V0Z" fill="#ede7e7" /></g>
<g transform="translate(12.108,0) scale(0.018,-0.018)"><path d="M76 0V493H179V0ZM128 560Q98 560 77.5 579.5Q57 599 57 630Q57 661 77.5 680.5Q98 700 128 700Q159 700 179.0 680.5Q199 661 199 630Q199 599 179.0 579.5Q159 560 128 560Z" fill="#ede7e7" /></g>
<g transform="translate(21.906,0) scale(0.018,-0.018)"><path d="M73 0V700H181V0Z" fill="#ede7e7" /></g>
<g transform="translate(26.778,0) scale(0.018,-0.018)"><path d="M77 430V489H111Q152 489 152 530V562H137Q102 562 79.0 583.0Q56 604 56 636Q56 671 79.0 692.5Q102 714 137 714Q172 714 194.5 691.5Q217 669 217 633V529Q217 430 118 430Z" fill="#ede7e7" /></g>
<g transform="translate(31.991999999999997,0) scale(0.018,-0.018)"><path d="M76 0V493H177V435H193Q207 461 238.0 481.0Q269 501 322 501Q377 501 410.5 478.5Q444 456 461 421H477Q494 455 526.5 478.0Q559 501 619 501Q667 501 704.0 481.5Q741 462 763.0 423.5Q785 385 785 328V0H682V320Q682 365 657.5 389.5Q633 414 588 414Q540 414 511.0 383.0Q482 352 482 294V0H379V320Q379 365 354.5 389.5Q330 414 285 414Q237 414 208.0 383.0Q179 352 179 294V0Z" fill="#ede7e7" /></g>
<g transform="translate(52.608,0) scale(0.018,-0.018)"><path d="M21 0 221 700H411L610 0H499L453 165H179L133 0ZM206 265H426L324 633H308Z" fill="#f40bf4" filter="url(#softGlowPrimary)"/></g>
<g transform="translate(64.28399999999999,0) scale(0.018,-0.018)"><path d="M76 0V700H179V301H195L389 493H526L277 254L534 0H398L195 205H179V0Z" fill="#f40bf4" filter="url(#softGlowPrimary)"/></g>
<g transform="translate(74.502,0) scale(0.018,-0.018)"><path d="M76 0V493H179V0ZM128 560Q98 560 77.5 579.5Q57 599 57 630Q57 661 77.5 680.5Q98 700 128 700Q159 700 179.0 680.5Q199 661 199 630Q199 599 179.0 579.5Q159 560 128 560Z" fill="#f40bf4" filter="url(#softGlowPrimary)"/></g>
<g transform="translate(79.41,0) scale(0.018,-0.018)"><path d="M165 0V406H27V493H165V601Q165 646 192.0 673.0Q219 700 264 700H391V613H297Q268 613 268 583V493H410V406H268V0Z" fill="#f40bf4" filter="url(#softGlowPrimary)"/></g>

<g transform="translate(92.502,0) scale(0.018,-0.018)"><path d="M48 0V140L416 589V603H59V700H527V560L159 111V97H531V0Z" fill="#0fd28c" filter="url(#softGlowAccent)"/></g>
<g transform="translate(103.18799999999999,0) scale(0.018,-0.018)"><path d="M229 -14Q176 -14 134.5 4.0Q93 22 68.5 57.0Q44 92 44 142Q44 193 68.5 226.5Q93 260 135.5 277.0Q178 294 232 294H382V326Q382 369 356.0 395.0Q330 421 276 421Q223 421 195.0 396.0Q167 371 158 331L62 362Q74 402 100.5 434.5Q127 467 171.0 487.0Q215 507 277 507Q373 507 428.0 458.0Q483 409 483 319V116Q483 86 511 86H553V0H476Q441 0 419.0 18.0Q397 36 397 67V70H382Q374 55 358.0 35.0Q342 15 311.0 0.5Q280 -14 229 -14ZM244 71Q306 71 344.0 106.5Q382 142 382 204V214H238Q197 214 172.0 196.5Q147 179 147 145Q147 111 173.0 91.0Q199 71 244 71Z" fill="#0fd28c" filter="url(#softGlowAccent)"/></g>
<g transform="translate(113.874,0) scale(0.018,-0.018)"><path d="M76 0V700H179V423H195Q205 442 223.5 460.0Q242 478 272.5 489.5Q303 501 350 501Q406 501 449.5 476.0Q493 451 518.0 405.5Q543 360 543 296V0H440V288Q440 352 408.0 382.5Q376 413 320 413Q256 413 217.5 371.0Q179 329 179 249V0Z" fill="#0fd28c" filter="url(#softGlowAccent)"/></g>
<g transform="translate(125.244,0) scale(0.018,-0.018)"><path d="M76 0V493H179V0ZM128 560Q98 560 77.5 579.5Q57 599 57 630Q57 661 77.5 680.5Q98 700 128 700Q159 700 179.0 680.5Q199 661 199 630Q199 599 179.0 579.5Q159 560 128 560Z" fill="#0fd28c" filter="url(#softGlowAccent)"/></g>
<g transform="translate(130.152,0) scale(0.018,-0.018)"><path d="M76 0V493H177V419H193Q207 449 243.0 475.0Q279 501 350 501Q406 501 449.5 476.0Q493 451 518.0 405.5Q543 360 543 296V0H440V288Q440 352 408.0 382.5Q376 413 320 413Q256 413 217.5 371.0Q179 329 179 249V0Z" fill="#0fd28c" filter="url(#softGlowAccent)"/></g>
<g transform="translate(141.522,0) scale(0.018,-0.018)"><path d="M138 -14Q103 -14 79.5 9.0Q56 32 56 68Q56 104 79.5 126.5Q103 149 138 149Q173 149 196.5 126.0Q220 103 220 68Q220 32 196.5 9.0Q173 -14 138 -14Z" fill="#0fd28c" filter="url(#softGlowAccent)"/></g>
    <g transform="translate(0,30) scale(0.018,-0.018)"><path d="M73 0V700H181V0Z" fill="#ede7e7" /></g>
<g transform="translate(9.762,30) scale(0.018,-0.018)"><path d="M361 -14Q289 -14 250.5 12.0Q212 38 193 70H177V0H76V700H179V426H195Q207 446 227.0 464.5Q247 483 280.0 495.0Q313 507 361 507Q423 507 475.0 477.0Q527 447 558.0 390.0Q589 333 589 254V239Q589 159 557.5 102.5Q526 46 474.5 16.0Q423 -14 361 -14ZM331 76Q398 76 441.5 119.0Q485 162 485 242V251Q485 330 442.0 373.0Q399 416 331 416Q265 416 221.5 373.0Q178 330 178 251V242Q178 162 221.5 119.0Q265 76 331 76Z" fill="#ede7e7" /></g>
<g transform="translate(21.6,30) scale(0.018,-0.018)"><path d="M265 -9Q209 -9 165.0 16.0Q121 41 96.0 87.0Q71 133 71 197V493H174V204Q174 140 206.0 109.5Q238 79 295 79Q358 79 396.5 121.5Q435 164 435 244V493H538V0H437V74H421Q407 44 371.0 17.5Q335 -9 265 -9Z" fill="#ede7e7" /></g>
<g transform="translate(32.952,30) scale(0.018,-0.018)"><path d="M76 0V493H179V0ZM128 560Q98 560 77.5 579.5Q57 599 57 630Q57 661 77.5 680.5Q98 700 128 700Q159 700 179.0 680.5Q199 661 199 630Q199 599 179.0 579.5Q159 560 128 560Z" fill="#ede7e7" /></g>
<g transform="translate(37.86,30) scale(0.018,-0.018)"><path d="M76 0V700H179V0Z" fill="#ede7e7" /></g>
<g transform="translate(42.768,30) scale(0.018,-0.018)"><path d="M280 -14Q219 -14 167.0 16.0Q115 46 83.5 102.5Q52 159 52 239V254Q52 333 83.0 390.0Q114 447 166.0 477.0Q218 507 280 507Q328 507 360.5 495.0Q393 483 414.0 464.5Q435 446 446 426H462V700H565V0H464V70H448Q429 38 390.5 12.0Q352 -14 280 -14ZM309 76Q376 76 419.5 119.0Q463 162 463 242V251Q463 330 420.0 373.0Q377 416 309 416Q243 416 199.5 373.0Q156 330 156 251V242Q156 162 199.5 119.0Q243 76 309 76Z" fill="#ede7e7" /></g>
<g transform="translate(59.496,30) scale(0.018,-0.018)"><path d="M21 0 221 700H411L610 0H499L453 165H179L133 0ZM206 265H426L324 633H308Z" fill="#ede7e7" /></g>
<g transform="translate(71.172,30) scale(0.018,-0.018)"><path d="M73 0V700H181V0Z" fill="#ede7e7" /></g>
<g transform="translate(76.044,30) scale(0.018,-0.018)"><path d="M74 209V303H370V209Z" fill="#ede7e7" /></g>
<g transform="translate(84.318,30) scale(0.018,-0.018)"><path d="M76 -200V493H177V422H193Q212 455 250.5 481.0Q289 507 361 507Q423 507 474.5 477.0Q526 447 557.5 390.5Q589 334 589 254V239Q589 159 558.0 102.5Q527 46 475.0 16.0Q423 -14 361 -14Q313 -14 280.0 -2.0Q247 10 227.0 28.5Q207 47 195 67H179V-200ZM331 76Q399 76 442.0 119.0Q485 162 485 242V251Q485 330 441.5 373.0Q398 416 331 416Q265 416 221.5 373.0Q178 330 178 251V242Q178 162 221.5 119.0Q265 76 331 76Z" fill="#ede7e7" /></g>
<g transform="translate(96.15599999999999,30) scale(0.018,-0.018)"><path d="M307 -14Q233 -14 175.5 16.5Q118 47 85.0 104.0Q52 161 52 239V254Q52 332 85.0 388.5Q118 445 175.5 476.0Q233 507 307 507Q381 507 439.0 476.0Q497 445 530.0 388.5Q563 332 563 254V239Q563 161 530.0 104.0Q497 47 439.0 16.5Q381 -14 307 -14ZM307 78Q375 78 417.5 121.5Q460 165 460 242V251Q460 328 418.0 371.5Q376 415 307 415Q240 415 197.5 371.5Q155 328 155 251V242Q155 165 197.5 121.5Q240 78 307 78Z" fill="#ede7e7" /></g>
<g transform="translate(107.526,30) scale(0.018,-0.018)"><path d="M130 0 46 493H149L211 69H227L313 493H480L565 69H581L643 493H746L662 0H489L404 423H388L303 0Z" fill="#ede7e7" /></g>
<g transform="translate(122.082,30) scale(0.018,-0.018)"><path d="M302 -14Q227 -14 171.0 17.5Q115 49 83.5 106.5Q52 164 52 240V252Q52 329 83.0 386.5Q114 444 169.5 475.5Q225 507 298 507Q369 507 422.5 475.5Q476 444 506.0 388.0Q536 332 536 257V218H157Q159 153 200.5 114.5Q242 76 304 76Q362 76 391.5 102.0Q421 128 437 162L522 118Q508 90 481.5 59.0Q455 28 412.0 7.0Q369 -14 302 -14ZM158 297H431Q427 353 391.0 384.5Q355 416 297 416Q239 416 202.5 384.5Q166 353 158 297Z" fill="#ede7e7" /></g>
<g transform="translate(132.894,30) scale(0.018,-0.018)"><path d="M76 0V493H177V435H193Q205 466 231.5 480.5Q258 495 297 495H356V402H293Q243 402 211.0 374.5Q179 347 179 290V0Z" fill="#ede7e7" /></g>
<g transform="translate(140.16,30) scale(0.018,-0.018)"><path d="M302 -14Q227 -14 171.0 17.5Q115 49 83.5 106.5Q52 164 52 240V252Q52 329 83.0 386.5Q114 444 169.5 475.5Q225 507 298 507Q369 507 422.5 475.5Q476 444 506.0 388.0Q536 332 536 257V218H157Q159 153 200.5 114.5Q242 76 304 76Q362 76 391.5 102.0Q421 128 437 162L522 118Q508 90 481.5 59.0Q455 28 412.0 7.0Q369 -14 302 -14ZM158 297H431Q427 353 391.0 384.5Q355 416 297 416Q239 416 202.5 384.5Q166 353 158 297Z" fill="#ede7e7" /></g>
<g transform="translate(150.972,30) scale(0.018,-0.018)"><path d="M280 -14Q219 -14 167.0 16.0Q115 46 83.5 102.5Q52 159 52 239V254Q52 333 83.0 390.0Q114 447 166.0 477.0Q218 507 280 507Q328 507 360.5 495.0Q393 483 414.0 464.5Q435 446 446 426H462V700H565V0H464V70H448Q429 38 390.5 12.0Q352 -14 280 -14ZM309 76Q376 76 419.5 119.0Q463 162 463 242V251Q463 330 420.0 373.0Q377 416 309 416Q243 416 199.5 373.0Q156 330 156 251V242Q156 162 199.5 119.0Q243 76 309 76Z" fill="#ede7e7" /></g>
<g transform="translate(167.7,30) scale(0.018,-0.018)"><path d="M229 -14Q176 -14 134.5 4.0Q93 22 68.5 57.0Q44 92 44 142Q44 193 68.5 226.5Q93 260 135.5 277.0Q178 294 232 294H382V326Q382 369 356.0 395.0Q330 421 276 421Q223 421 195.0 396.0Q167 371 158 331L62 362Q74 402 100.5 434.5Q127 467 171.0 487.0Q215 507 277 507Q373 507 428.0 458.0Q483 409 483 319V116Q483 86 511 86H553V0H476Q441 0 419.0 18.0Q397 36 397 67V70H382Q374 55 358.0 35.0Q342 15 311.0 0.5Q280 -14 229 -14ZM244 71Q306 71 344.0 106.5Q382 142 382 204V214H238Q197 214 172.0 196.5Q147 179 147 145Q147 111 173.0 91.0Q199 71 244 71Z" fill="#ede7e7" /></g>
<g transform="translate(178.386,30) scale(0.018,-0.018)"><path d="M76 -200V493H177V422H193Q212 455 250.5 481.0Q289 507 361 507Q423 507 474.5 477.0Q526 447 557.5 390.5Q589 334 589 254V239Q589 159 558.0 102.5Q527 46 475.0 16.0Q423 -14 361 -14Q313 -14 280.0 -2.0Q247 10 227.0 28.5Q207 47 195 67H179V-200ZM331 76Q399 76 442.0 119.0Q485 162 485 242V251Q485 330 441.5 373.0Q398 416 331 416Q265 416 221.5 373.0Q178 330 178 251V242Q178 162 221.5 119.0Q265 76 331 76Z" fill="#ede7e7" /></g>
<g transform="translate(190.224,30) scale(0.018,-0.018)"><path d="M76 -200V493H177V422H193Q212 455 250.5 481.0Q289 507 361 507Q423 507 474.5 477.0Q526 447 557.5 390.5Q589 334 589 254V239Q589 159 558.0 102.5Q527 46 475.0 16.0Q423 -14 361 -14Q313 -14 280.0 -2.0Q247 10 227.0 28.5Q207 47 195 67H179V-200ZM331 76Q399 76 442.0 119.0Q485 162 485 242V251Q485 330 441.5 373.0Q398 416 331 416Q265 416 221.5 373.0Q178 330 178 251V242Q178 162 221.5 119.0Q265 76 331 76Z" fill="#ede7e7" /></g>
<g transform="translate(202.06199999999998,30) scale(0.018,-0.018)"><path d="M278 -14Q184 -14 122.0 28.0Q60 70 46 155L142 178Q150 137 169.0 113.0Q188 89 216.5 79.0Q245 69 278 69Q327 69 353.5 88.0Q380 107 380 137Q380 167 355.0 181.0Q330 195 281 204L247 210Q197 219 156.0 236.0Q115 253 91.0 283.0Q67 313 67 360Q67 430 119.0 468.5Q171 507 257 507Q340 507 393.5 469.5Q447 432 463 368L367 341Q358 386 329.0 404.5Q300 423 257 423Q215 423 191.0 407.5Q167 392 167 364Q167 334 190.5 320.0Q214 306 254 299L289 293Q342 284 386.0 268.0Q430 252 455.5 222.0Q481 192 481 142Q481 68 426.0 27.0Q371 -14 278 -14Z" fill="#ede7e7" /></g>
<g transform="translate(216.70199999999997,30) scale(0.018,-0.018)"><path d="M229 -14Q176 -14 134.5 4.0Q93 22 68.5 57.0Q44 92 44 142Q44 193 68.5 226.5Q93 260 135.5 277.0Q178 294 232 294H382V326Q382 369 356.0 395.0Q330 421 276 421Q223 421 195.0 396.0Q167 371 158 331L62 362Q74 402 100.5 434.5Q127 467 171.0 487.0Q215 507 277 507Q373 507 428.0 458.0Q483 409 483 319V116Q483 86 511 86H553V0H476Q441 0 419.0 18.0Q397 36 397 67V70H382Q374 55 358.0 35.0Q342 15 311.0 0.5Q280 -14 229 -14ZM244 71Q306 71 344.0 106.5Q382 142 382 204V214H238Q197 214 172.0 196.5Q147 179 147 145Q147 111 173.0 91.0Q199 71 244 71Z" fill="#ede7e7" /></g>
<g transform="translate(227.38799999999998,30) scale(0.018,-0.018)"><path d="M76 0V493H177V419H193Q207 449 243.0 475.0Q279 501 350 501Q406 501 449.5 476.0Q493 451 518.0 405.5Q543 360 543 296V0H440V288Q440 352 408.0 382.5Q376 413 320 413Q256 413 217.5 371.0Q179 329 179 249V0Z" fill="#ede7e7" /></g>
<g transform="translate(238.75799999999998,30) scale(0.018,-0.018)"><path d="M280 -14Q219 -14 167.0 16.0Q115 46 83.5 102.5Q52 159 52 239V254Q52 333 83.0 390.0Q114 447 166.0 477.0Q218 507 280 507Q328 507 360.5 495.0Q393 483 414.0 464.5Q435 446 446 426H462V700H565V0H464V70H448Q429 38 390.5 12.0Q352 -14 280 -14ZM309 76Q376 76 419.5 119.0Q463 162 463 242V251Q463 330 420.0 373.0Q377 416 309 416Q243 416 199.5 373.0Q156 330 156 251V242Q156 162 199.5 119.0Q243 76 309 76Z" fill="#ede7e7" /></g>
<g transform="translate(255.48599999999996,30) scale(0.018,-0.018)"><path d="M165 0V406H27V493H165V601Q165 646 192.0 673.0Q219 700 264 700H391V613H297Q268 613 268 583V493H410V406H268V0Z" fill="#ede7e7" /></g>
<g transform="translate(263.688,30) scale(0.018,-0.018)"><path d="M265 -9Q209 -9 165.0 16.0Q121 41 96.0 87.0Q71 133 71 197V493H174V204Q174 140 206.0 109.5Q238 79 295 79Q358 79 396.5 121.5Q435 164 435 244V493H538V0H437V74H421Q407 44 371.0 17.5Q335 -9 265 -9Z" fill="#ede7e7" /></g>
<g transform="translate(275.03999999999996,30) scale(0.018,-0.018)"><path d="M76 0V700H179V0Z" fill="#ede7e7" /></g>
<g transform="translate(279.948,30) scale(0.018,-0.018)"><path d="M76 0V700H179V0Z" fill="#ede7e7" /></g>
<g transform="translate(284.856,30) scale(0.018,-0.018)"><path d="M74 209V303H370V209Z" fill="#ede7e7" /></g>
<g transform="translate(293.13,30) scale(0.018,-0.018)"><path d="M278 -14Q184 -14 122.0 28.0Q60 70 46 155L142 178Q150 137 169.0 113.0Q188 89 216.5 79.0Q245 69 278 69Q327 69 353.5 88.0Q380 107 380 137Q380 167 355.0 181.0Q330 195 281 204L247 210Q197 219 156.0 236.0Q115 253 91.0 283.0Q67 313 67 360Q67 430 119.0 468.5Q171 507 257 507Q340 507 393.5 469.5Q447 432 463 368L367 341Q358 386 329.0 404.5Q300 423 257 423Q215 423 191.0 407.5Q167 392 167 364Q167 334 190.5 320.0Q214 306 254 299L289 293Q342 284 386.0 268.0Q430 252 455.5 222.0Q481 192 481 142Q481 68 426.0 27.0Q371 -14 278 -14Z" fill="#ede7e7" /></g>
<g transform="translate(302.88,30) scale(0.018,-0.018)"><path d="M261 0Q216 0 189.5 27.0Q163 54 163 99V406H27V493H163V656H266V493H413V406H266V117Q266 87 294 87H397V0Z" fill="#ede7e7" /></g>
<g transform="translate(311.424,30) scale(0.018,-0.018)"><path d="M229 -14Q176 -14 134.5 4.0Q93 22 68.5 57.0Q44 92 44 142Q44 193 68.5 226.5Q93 260 135.5 277.0Q178 294 232 294H382V326Q382 369 356.0 395.0Q330 421 276 421Q223 421 195.0 396.0Q167 371 158 331L62 362Q74 402 100.5 434.5Q127 467 171.0 487.0Q215 507 277 507Q373 507 428.0 458.0Q483 409 483 319V116Q483 86 511 86H553V0H476Q441 0 419.0 18.0Q397 36 397 67V70H382Q374 55 358.0 35.0Q342 15 311.0 0.5Q280 -14 229 -14ZM244 71Q306 71 344.0 106.5Q382 142 382 204V214H238Q197 214 172.0 196.5Q147 179 147 145Q147 111 173.0 91.0Q199 71 244 71Z" fill="#ede7e7" /></g>
<g transform="translate(322.10999999999996,30) scale(0.018,-0.018)"><path d="M305 -14Q234 -14 176.5 16.0Q119 46 85.5 103.0Q52 160 52 240V253Q52 333 85.5 389.5Q119 446 176.5 476.5Q234 507 305 507Q376 507 426.0 481.0Q476 455 506.5 412.0Q537 369 546 317L446 296Q441 329 425.0 356.0Q409 383 380.0 399.0Q351 415 307 415Q264 415 229.5 395.5Q195 376 175.0 339.5Q155 303 155 251V242Q155 190 175.0 153.0Q195 116 229.5 97.0Q264 78 307 78Q372 78 406.0 111.5Q440 145 449 197L549 174Q537 123 506.5 80.0Q476 37 426.0 11.5Q376 -14 305 -14Z" fill="#ede7e7" /></g>
<g transform="translate(333.066,30) scale(0.018,-0.018)"><path d="M76 0V700H179V301H195L389 493H526L277 254L534 0H398L195 205H179V0Z" fill="#ede7e7" /></g>
<g transform="translate(348.174,30) scale(0.018,-0.018)"><path d="M261 0Q216 0 189.5 27.0Q163 54 163 99V406H27V493H163V656H266V493H413V406H266V117Q266 87 294 87H397V0Z" fill="#ede7e7" /></g>
<g transform="translate(356.71799999999996,30) scale(0.018,-0.018)"><path d="M307 -14Q233 -14 175.5 16.5Q118 47 85.0 104.0Q52 161 52 239V254Q52 332 85.0 388.5Q118 445 175.5 476.0Q233 507 307 507Q381 507 439.0 476.0Q497 445 530.0 388.5Q563 332 563 254V239Q563 161 530.0 104.0Q497 47 439.0 16.5Q381 -14 307 -14ZM307 78Q375 78 417.5 121.5Q460 165 460 242V251Q460 328 418.0 371.5Q376 415 307 415Q240 415 197.5 371.5Q155 328 155 251V242Q155 165 197.5 121.5Q240 78 307 78Z" fill="#ede7e7" /></g>
<g transform="translate(368.08799999999997,30) scale(0.018,-0.018)"><path d="M307 -14Q233 -14 175.5 16.5Q118 47 85.0 104.0Q52 161 52 239V254Q52 332 85.0 388.5Q118 445 175.5 476.0Q233 507 307 507Q381 507 439.0 476.0Q497 445 530.0 388.5Q563 332 563 254V239Q563 161 530.0 104.0Q497 47 439.0 16.5Q381 -14 307 -14ZM307 78Q375 78 417.5 121.5Q460 165 460 242V251Q460 328 418.0 371.5Q376 415 307 415Q240 415 197.5 371.5Q155 328 155 251V242Q155 165 197.5 121.5Q240 78 307 78Z" fill="#ede7e7" /></g>
<g transform="translate(379.45799999999997,30) scale(0.018,-0.018)"><path d="M76 0V700H179V0Z" fill="#ede7e7" /></g>
<g transform="translate(384.366,30) scale(0.018,-0.018)"><path d="M278 -14Q184 -14 122.0 28.0Q60 70 46 155L142 178Q150 137 169.0 113.0Q188 89 216.5 79.0Q245 69 278 69Q327 69 353.5 88.0Q380 107 380 137Q380 167 355.0 181.0Q330 195 281 204L247 210Q197 219 156.0 236.0Q115 253 91.0 283.0Q67 313 67 360Q67 430 119.0 468.5Q171 507 257 507Q340 507 393.5 469.5Q447 432 463 368L367 341Q358 386 329.0 404.5Q300 423 257 423Q215 423 191.0 407.5Q167 392 167 364Q167 334 190.5 320.0Q214 306 254 299L289 293Q342 284 386.0 268.0Q430 252 455.5 222.0Q481 192 481 142Q481 68 426.0 27.0Q371 -14 278 -14Z" fill="#ede7e7" /></g>
<g transform="translate(399.006,30) scale(0.018,-0.018)"><path d="M261 0Q216 0 189.5 27.0Q163 54 163 99V406H27V493H163V656H266V493H413V406H266V117Q266 87 294 87H397V0Z" fill="#ede7e7" /></g>
<g transform="translate(407.54999999999995,30) scale(0.018,-0.018)"><path d="M76 0V700H179V423H195Q205 442 223.5 460.0Q242 478 272.5 489.5Q303 501 350 501Q406 501 449.5 476.0Q493 451 518.0 405.5Q543 360 543 296V0H440V288Q440 352 408.0 382.5Q376 413 320 413Q256 413 217.5 371.0Q179 329 179 249V0Z" fill="#ede7e7" /></g>
<g transform="translate(418.91999999999996,30) scale(0.018,-0.018)"><path d="M229 -14Q176 -14 134.5 4.0Q93 22 68.5 57.0Q44 92 44 142Q44 193 68.5 226.5Q93 260 135.5 277.0Q178 294 232 294H382V326Q382 369 356.0 395.0Q330 421 276 421Q223 421 195.0 396.0Q167 371 158 331L62 362Q74 402 100.5 434.5Q127 467 171.0 487.0Q215 507 277 507Q373 507 428.0 458.0Q483 409 483 319V116Q483 86 511 86H553V0H476Q441 0 419.0 18.0Q397 36 397 67V70H382Q374 55 358.0 35.0Q342 15 311.0 0.5Q280 -14 229 -14ZM244 71Q306 71 344.0 106.5Q382 142 382 204V214H238Q197 214 172.0 196.5Q147 179 147 145Q147 111 173.0 91.0Q199 71 244 71Z" fill="#ede7e7" /></g>
<g transform="translate(429.60599999999994,30) scale(0.018,-0.018)"><path d="M261 0Q216 0 189.5 27.0Q163 54 163 99V406H27V493H163V656H266V493H413V406H266V117Q266 87 294 87H397V0Z" fill="#ede7e7" /></g>
<g transform="translate(443.0399999999999,30) scale(0.018,-0.018)"><path d="M278 -14Q184 -14 122.0 28.0Q60 70 46 155L142 178Q150 137 169.0 113.0Q188 89 216.5 79.0Q245 69 278 69Q327 69 353.5 88.0Q380 107 380 137Q380 167 355.0 181.0Q330 195 281 204L247 210Q197 219 156.0 236.0Q115 253 91.0 283.0Q67 313 67 360Q67 430 119.0 468.5Q171 507 257 507Q340 507 393.5 469.5Q447 432 463 368L367 341Q358 386 329.0 404.5Q300 423 257 423Q215 423 191.0 407.5Q167 392 167 364Q167 334 190.5 320.0Q214 306 254 299L289 293Q342 284 386.0 268.0Q430 252 455.5 222.0Q481 192 481 142Q481 68 426.0 27.0Q371 -14 278 -14Z" fill="#ede7e7" /></g>
<g transform="translate(452.7899999999999,30) scale(0.018,-0.018)"><path d="M307 -14Q233 -14 175.5 16.5Q118 47 85.0 104.0Q52 161 52 239V254Q52 332 85.0 388.5Q118 445 175.5 476.0Q233 507 307 507Q381 507 439.0 476.0Q497 445 530.0 388.5Q563 332 563 254V239Q563 161 530.0 104.0Q497 47 439.0 16.5Q381 -14 307 -14ZM307 78Q375 78 417.5 121.5Q460 165 460 242V251Q460 328 418.0 371.5Q376 415 307 415Q240 415 197.5 371.5Q155 328 155 251V242Q155 165 197.5 121.5Q240 78 307 78Z" fill="#ede7e7" /></g>
<g transform="translate(464.1599999999999,30) scale(0.018,-0.018)"><path d="M76 0V700H179V0Z" fill="#ede7e7" /></g>
<g transform="translate(469.0679999999999,30) scale(0.018,-0.018)"><path d="M190 0 24 493H133L264 76H280L411 493H520L354 0Z" fill="#ede7e7" /></g>
<g transform="translate(479.1599999999999,30) scale(0.018,-0.018)"><path d="M302 -14Q227 -14 171.0 17.5Q115 49 83.5 106.5Q52 164 52 240V252Q52 329 83.0 386.5Q114 444 169.5 475.5Q225 507 298 507Q369 507 422.5 475.5Q476 444 506.0 388.0Q536 332 536 257V218H157Q159 153 200.5 114.5Q242 76 304 76Q362 76 391.5 102.0Q421 128 437 162L522 118Q508 90 481.5 59.0Q455 28 412.0 7.0Q369 -14 302 -14ZM158 297H431Q427 353 391.0 384.5Q355 416 297 416Q239 416 202.5 384.5Q166 353 158 297Z" fill="#ede7e7" /></g>
    <g transform="translate(0,60) scale(0.018,-0.018)"><path d="M76 0V493H177V435H193Q205 466 231.5 480.5Q258 495 297 495H356V402H293Q243 402 211.0 374.5Q179 347 179 290V0Z" fill="#ede7e7" /></g>
<g transform="translate(7.265999999999999,60) scale(0.018,-0.018)"><path d="M302 -14Q227 -14 171.0 17.5Q115 49 83.5 106.5Q52 164 52 240V252Q52 329 83.0 386.5Q114 444 169.5 475.5Q225 507 298 507Q369 507 422.5 475.5Q476 444 506.0 388.0Q536 332 536 257V218H157Q159 153 200.5 114.5Q242 76 304 76Q362 76 391.5 102.0Q421 128 437 162L522 118Q508 90 481.5 59.0Q455 28 412.0 7.0Q369 -14 302 -14ZM158 297H431Q427 353 391.0 384.5Q355 416 297 416Q239 416 202.5 384.5Q166 353 158 297Z" fill="#ede7e7" /></g>
<g transform="translate(18.078,60) scale(0.018,-0.018)"><path d="M229 -14Q176 -14 134.5 4.0Q93 22 68.5 57.0Q44 92 44 142Q44 193 68.5 226.5Q93 260 135.5 277.0Q178 294 232 294H382V326Q382 369 356.0 395.0Q330 421 276 421Q223 421 195.0 396.0Q167 371 158 331L62 362Q74 402 100.5 434.5Q127 467 171.0 487.0Q215 507 277 507Q373 507 428.0 458.0Q483 409 483 319V116Q483 86 511 86H553V0H476Q441 0 419.0 18.0Q397 36 397 67V70H382Q374 55 358.0 35.0Q342 15 311.0 0.5Q280 -14 229 -14ZM244 71Q306 71 344.0 106.5Q382 142 382 204V214H238Q197 214 172.0 196.5Q147 179 147 145Q147 111 173.0 91.0Q199 71 244 71Z" fill="#ede7e7" /></g>
<g transform="translate(28.764,60) scale(0.018,-0.018)"><path d="M76 0V700H179V0Z" fill="#ede7e7" /></g>
<g transform="translate(38.562,60) scale(0.018,-0.018)"><path d="M76 -200V493H177V422H193Q212 455 250.5 481.0Q289 507 361 507Q423 507 474.5 477.0Q526 447 557.5 390.5Q589 334 589 254V239Q589 159 558.0 102.5Q527 46 475.0 16.0Q423 -14 361 -14Q313 -14 280.0 -2.0Q247 10 227.0 28.5Q207 47 195 67H179V-200ZM331 76Q399 76 442.0 119.0Q485 162 485 242V251Q485 330 441.5 373.0Q398 416 331 416Q265 416 221.5 373.0Q178 330 178 251V242Q178 162 221.5 119.0Q265 76 331 76Z" fill="#ede7e7" /></g>
<g transform="translate(50.4,60) scale(0.018,-0.018)"><path d="M76 0V493H177V435H193Q205 466 231.5 480.5Q258 495 297 495H356V402H293Q243 402 211.0 374.5Q179 347 179 290V0Z" fill="#ede7e7" /></g>
<g transform="translate(57.666,60) scale(0.018,-0.018)"><path d="M307 -14Q233 -14 175.5 16.5Q118 47 85.0 104.0Q52 161 52 239V254Q52 332 85.0 388.5Q118 445 175.5 476.0Q233 507 307 507Q381 507 439.0 476.0Q497 445 530.0 388.5Q563 332 563 254V239Q563 161 530.0 104.0Q497 47 439.0 16.5Q381 -14 307 -14ZM307 78Q375 78 417.5 121.5Q460 165 460 242V251Q460 328 418.0 371.5Q376 415 307 415Q240 415 197.5 371.5Q155 328 155 251V242Q155 165 197.5 121.5Q240 78 307 78Z" fill="#ede7e7" /></g>
<g transform="translate(69.036,60) scale(0.018,-0.018)"><path d="M361 -14Q289 -14 250.5 12.0Q212 38 193 70H177V0H76V700H179V426H195Q207 446 227.0 464.5Q247 483 280.0 495.0Q313 507 361 507Q423 507 475.0 477.0Q527 447 558.0 390.0Q589 333 589 254V239Q589 159 557.5 102.5Q526 46 474.5 16.0Q423 -14 361 -14ZM331 76Q398 76 441.5 119.0Q485 162 485 242V251Q485 330 442.0 373.0Q399 416 331 416Q265 416 221.5 373.0Q178 330 178 251V242Q178 162 221.5 119.0Q265 76 331 76Z" fill="#ede7e7" /></g>
<g transform="translate(80.874,60) scale(0.018,-0.018)"><path d="M76 0V700H179V0Z" fill="#ede7e7" /></g>
<g transform="translate(85.782,60) scale(0.018,-0.018)"><path d="M302 -14Q227 -14 171.0 17.5Q115 49 83.5 106.5Q52 164 52 240V252Q52 329 83.0 386.5Q114 444 169.5 475.5Q225 507 298 507Q369 507 422.5 475.5Q476 444 506.0 388.0Q536 332 536 257V218H157Q159 153 200.5 114.5Q242 76 304 76Q362 76 391.5 102.0Q421 128 437 162L522 118Q508 90 481.5 59.0Q455 28 412.0 7.0Q369 -14 302 -14ZM158 297H431Q427 353 391.0 384.5Q355 416 297 416Q239 416 202.5 384.5Q166 353 158 297Z" fill="#ede7e7" /></g>
<g transform="translate(96.594,60) scale(0.018,-0.018)"><path d="M76 0V493H177V435H193Q207 461 238.0 481.0Q269 501 322 501Q377 501 410.5 478.5Q444 456 461 421H477Q494 455 526.5 478.0Q559 501 619 501Q667 501 704.0 481.5Q741 462 763.0 423.5Q785 385 785 328V0H682V320Q682 365 657.5 389.5Q633 414 588 414Q540 414 511.0 383.0Q482 352 482 294V0H379V320Q379 365 354.5 389.5Q330 414 285 414Q237 414 208.0 383.0Q179 352 179 294V0Z" fill="#ede7e7" /></g>
<g transform="translate(112.32,60) scale(0.018,-0.018)"><path d="M278 -14Q184 -14 122.0 28.0Q60 70 46 155L142 178Q150 137 169.0 113.0Q188 89 216.5 79.0Q245 69 278 69Q327 69 353.5 88.0Q380 107 380 137Q380 167 355.0 181.0Q330 195 281 204L247 210Q197 219 156.0 236.0Q115 253 91.0 283.0Q67 313 67 360Q67 430 119.0 468.5Q171 507 257 507Q340 507 393.5 469.5Q447 432 463 368L367 341Q358 386 329.0 404.5Q300 423 257 423Q215 423 191.0 407.5Q167 392 167 364Q167 334 190.5 320.0Q214 306 254 299L289 293Q342 284 386.0 268.0Q430 252 455.5 222.0Q481 192 481 142Q481 68 426.0 27.0Q371 -14 278 -14Z" fill="#ede7e7" /></g>
<g transform="translate(122.07,60) scale(0.018,-0.018)"><path d="M138 -14Q103 -14 79.5 9.0Q56 32 56 68Q56 104 79.5 126.5Q103 149 138 149Q173 149 196.5 126.0Q220 103 220 68Q220 32 196.5 9.0Q173 -14 138 -14Z" fill="#ede7e7" /></g>
<g transform="translate(132.22799999999998,60) scale(0.018,-0.018)"><path d="M311 -14Q232 -14 171.0 14.0Q110 42 75.5 96.5Q41 151 41 229V254H148V229Q148 155 192.5 118.0Q237 81 311 81Q386 81 424.0 112.5Q462 144 462 194Q462 227 444.0 248.0Q426 269 393.0 281.5Q360 294 314 305L277 314Q210 330 160.5 353.5Q111 377 84.0 416.0Q57 455 57 516Q57 578 87.5 622.0Q118 666 172.0 690.0Q226 714 299 714Q372 714 429.5 689.0Q487 664 520.0 615.0Q553 566 553 492V456H446V492Q446 537 427.5 565.0Q409 593 376.0 606.0Q343 619 299 619Q235 619 199.5 592.5Q164 566 164 519Q164 487 179.5 466.5Q195 446 225.0 433.0Q255 420 300 410L337 401Q405 386 457.0 362.5Q509 339 539.0 299.0Q569 259 569 196Q569 133 537.5 86.0Q506 39 448.0 12.5Q390 -14 311 -14Z" fill="#ede7e7" /></g>
<g transform="translate(143.48999999999998,60) scale(0.018,-0.018)"><path d="M305 -14Q234 -14 176.5 16.0Q119 46 85.5 103.0Q52 160 52 240V253Q52 333 85.5 389.5Q119 446 176.5 476.5Q234 507 305 507Q376 507 426.0 481.0Q476 455 506.5 412.0Q537 369 546 317L446 296Q441 329 425.0 356.0Q409 383 380.0 399.0Q351 415 307 415Q264 415 229.5 395.5Q195 376 175.0 339.5Q155 303 155 251V242Q155 190 175.0 153.0Q195 116 229.5 97.0Q264 78 307 78Q372 78 406.0 111.5Q440 145 449 197L549 174Q537 123 506.5 80.0Q476 37 426.0 11.5Q376 -14 305 -14Z" fill="#ede7e7" /></g>
<g transform="translate(154.44599999999997,60) scale(0.018,-0.018)"><path d="M76 0V493H177V435H193Q205 466 231.5 480.5Q258 495 297 495H356V402H293Q243 402 211.0 374.5Q179 347 179 290V0Z" fill="#ede7e7" /></g>
<g transform="translate(161.71199999999996,60) scale(0.018,-0.018)"><path d="M307 -14Q233 -14 175.5 16.5Q118 47 85.0 104.0Q52 161 52 239V254Q52 332 85.0 388.5Q118 445 175.5 476.0Q233 507 307 507Q381 507 439.0 476.0Q497 445 530.0 388.5Q563 332 563 254V239Q563 161 530.0 104.0Q497 47 439.0 16.5Q381 -14 307 -14ZM307 78Q375 78 417.5 121.5Q460 165 460 242V251Q460 328 418.0 371.5Q376 415 307 415Q240 415 197.5 371.5Q155 328 155 251V242Q155 165 197.5 121.5Q240 78 307 78Z" fill="#ede7e7" /></g>
<g transform="translate(173.08199999999997,60) scale(0.018,-0.018)"><path d="M76 0V700H179V0Z" fill="#ede7e7" /></g>
<g transform="translate(177.98999999999995,60) scale(0.018,-0.018)"><path d="M76 0V700H179V0Z" fill="#ede7e7" /></g>
<g transform="translate(187.78799999999993,60) scale(0.018,-0.018)"><path d="M280 -14Q219 -14 167.0 16.0Q115 46 83.5 102.5Q52 159 52 239V254Q52 333 83.0 390.0Q114 447 166.0 477.0Q218 507 280 507Q328 507 360.5 495.0Q393 483 414.0 464.5Q435 446 446 426H462V700H565V0H464V70H448Q429 38 390.5 12.0Q352 -14 280 -14ZM309 76Q376 76 419.5 119.0Q463 162 463 242V251Q463 330 420.0 373.0Q377 416 309 416Q243 416 199.5 373.0Q156 330 156 251V242Q156 162 199.5 119.0Q243 76 309 76Z" fill="#ede7e7" /></g>
<g transform="translate(199.62599999999992,60) scale(0.018,-0.018)"><path d="M307 -14Q233 -14 175.5 16.5Q118 47 85.0 104.0Q52 161 52 239V254Q52 332 85.0 388.5Q118 445 175.5 476.0Q233 507 307 507Q381 507 439.0 476.0Q497 445 530.0 388.5Q563 332 563 254V239Q563 161 530.0 104.0Q497 47 439.0 16.5Q381 -14 307 -14ZM307 78Q375 78 417.5 121.5Q460 165 460 242V251Q460 328 418.0 371.5Q376 415 307 415Q240 415 197.5 371.5Q155 328 155 251V242Q155 165 197.5 121.5Q240 78 307 78Z" fill="#ede7e7" /></g>
<g transform="translate(210.99599999999992,60) scale(0.018,-0.018)"><path d="M130 0 46 493H149L211 69H227L313 493H480L565 69H581L643 493H746L662 0H489L404 423H388L303 0Z" fill="#ede7e7" /></g>
<g transform="translate(225.55199999999994,60) scale(0.018,-0.018)"><path d="M76 0V493H177V419H193Q207 449 243.0 475.0Q279 501 350 501Q406 501 449.5 476.0Q493 451 518.0 405.5Q543 360 543 296V0H440V288Q440 352 408.0 382.5Q376 413 320 413Q256 413 217.5 371.0Q179 329 179 249V0Z" fill="#ede7e7" /></g>
<g transform="translate(241.81199999999993,60) scale(0.018,-0.018)"><path d="M261 0Q216 0 189.5 27.0Q163 54 163 99V406H27V493H163V656H266V493H413V406H266V117Q266 87 294 87H397V0Z" fill="#ede7e7" /></g>
<g transform="translate(250.35599999999994,60) scale(0.018,-0.018)"><path d="M307 -14Q233 -14 175.5 16.5Q118 47 85.0 104.0Q52 161 52 239V254Q52 332 85.0 388.5Q118 445 175.5 476.0Q233 507 307 507Q381 507 439.0 476.0Q497 445 530.0 388.5Q563 332 563 254V239Q563 161 530.0 104.0Q497 47 439.0 16.5Q381 -14 307 -14ZM307 78Q375 78 417.5 121.5Q460 165 460 242V251Q460 328 418.0 371.5Q376 415 307 415Q240 415 197.5 371.5Q155 328 155 251V242Q155 165 197.5 121.5Q240 78 307 78Z" fill="#ede7e7" /></g>
<g transform="translate(266.61599999999993,60) scale(0.018,-0.018)"><path d="M278 -14Q184 -14 122.0 28.0Q60 70 46 155L142 178Q150 137 169.0 113.0Q188 89 216.5 79.0Q245 69 278 69Q327 69 353.5 88.0Q380 107 380 137Q380 167 355.0 181.0Q330 195 281 204L247 210Q197 219 156.0 236.0Q115 253 91.0 283.0Q67 313 67 360Q67 430 119.0 468.5Q171 507 257 507Q340 507 393.5 469.5Q447 432 463 368L367 341Q358 386 329.0 404.5Q300 423 257 423Q215 423 191.0 407.5Q167 392 167 364Q167 334 190.5 320.0Q214 306 254 299L289 293Q342 284 386.0 268.0Q430 252 455.5 222.0Q481 192 481 142Q481 68 426.0 27.0Q371 -14 278 -14Z" fill="#ede7e7" /></g>
<g transform="translate(276.36599999999993,60) scale(0.018,-0.018)"><path d="M302 -14Q227 -14 171.0 17.5Q115 49 83.5 106.5Q52 164 52 240V252Q52 329 83.0 386.5Q114 444 169.5 475.5Q225 507 298 507Q369 507 422.5 475.5Q476 444 506.0 388.0Q536 332 536 257V218H157Q159 153 200.5 114.5Q242 76 304 76Q362 76 391.5 102.0Q421 128 437 162L522 118Q508 90 481.5 59.0Q455 28 412.0 7.0Q369 -14 302 -14ZM158 297H431Q427 353 391.0 384.5Q355 416 297 416Q239 416 202.5 384.5Q166 353 158 297Z" fill="#ede7e7" /></g>
<g transform="translate(287.17799999999994,60) scale(0.018,-0.018)"><path d="M302 -14Q227 -14 171.0 17.5Q115 49 83.5 106.5Q52 164 52 240V252Q52 329 83.0 386.5Q114 444 169.5 475.5Q225 507 298 507Q369 507 422.5 475.5Q476 444 506.0 388.0Q536 332 536 257V218H157Q159 153 200.5 114.5Q242 76 304 76Q362 76 391.5 102.0Q421 128 437 162L522 118Q508 90 481.5 59.0Q455 28 412.0 7.0Q369 -14 302 -14ZM158 297H431Q427 353 391.0 384.5Q355 416 297 416Q239 416 202.5 384.5Q166 353 158 297Z" fill="#ede7e7" /></g>
<g transform="translate(302.87999999999994,60) scale(0.018,-0.018)"><path d="M76 0V493H177V435H193Q207 461 238.0 481.0Q269 501 322 501Q377 501 410.5 478.5Q444 456 461 421H477Q494 455 526.5 478.0Q559 501 619 501Q667 501 704.0 481.5Q741 462 763.0 423.5Q785 385 785 328V0H682V320Q682 365 657.5 389.5Q633 414 588 414Q540 414 511.0 383.0Q482 352 482 294V0H379V320Q379 365 354.5 389.5Q330 414 285 414Q237 414 208.0 383.0Q179 352 179 294V0Z" fill="#ede7e7" /></g>
<g transform="translate(318.60599999999994,60) scale(0.018,-0.018)"><path d="M133 -200V-110H408Q436 -110 436 -80V72H420Q411 52 392.5 33.5Q374 15 343.0 3.0Q312 -9 265 -9Q209 -9 165.0 16.0Q121 41 96.0 87.0Q71 133 71 196V493H174V204Q174 140 206.0 109.5Q238 79 295 79Q358 79 396.5 121.0Q435 163 435 243V493H538V-101Q538 -146 511.5 -173.0Q485 -200 439 -200Z" fill="#ede7e7" /></g>
<g transform="translate(334.8479999999999,60) scale(0.018,-0.018)"><path d="M130 0 46 493H149L211 69H227L313 493H480L565 69H581L643 493H746L662 0H489L404 423H388L303 0Z" fill="#ede7e7" /></g>
<g transform="translate(349.4039999999999,60) scale(0.018,-0.018)"><path d="M307 -14Q233 -14 175.5 16.5Q118 47 85.0 104.0Q52 161 52 239V254Q52 332 85.0 388.5Q118 445 175.5 476.0Q233 507 307 507Q381 507 439.0 476.0Q497 445 530.0 388.5Q563 332 563 254V239Q563 161 530.0 104.0Q497 47 439.0 16.5Q381 -14 307 -14ZM307 78Q375 78 417.5 121.5Q460 165 460 242V251Q460 328 418.0 371.5Q376 415 307 415Q240 415 197.5 371.5Q155 328 155 251V242Q155 165 197.5 121.5Q240 78 307 78Z" fill="#ede7e7" /></g>
<g transform="translate(360.7739999999999,60) scale(0.018,-0.018)"><path d="M76 0V493H177V435H193Q205 466 231.5 480.5Q258 495 297 495H356V402H293Q243 402 211.0 374.5Q179 347 179 290V0Z" fill="#ede7e7" /></g>
<g transform="translate(368.0399999999999,60) scale(0.018,-0.018)"><path d="M76 0V700H179V301H195L389 493H526L277 254L534 0H398L195 205H179V0Z" fill="#ede7e7" /></g>
<g transform="translate(378.2579999999999,60) scale(0.018,-0.018)"><path d="M77 -136V-77H111Q152 -77 152 -36V-4H137Q102 -4 79.0 17.0Q56 38 56 70Q56 105 79.0 126.5Q102 148 137 148Q172 148 194.5 125.5Q217 103 217 67V-37Q217 -136 118 -136Z" fill="#ede7e7" /></g>
<g transform="translate(388.3619999999999,60) scale(0.018,-0.018)"><path d="M307 -14Q233 -14 175.5 16.5Q118 47 85.0 104.0Q52 161 52 239V254Q52 332 85.0 388.5Q118 445 175.5 476.0Q233 507 307 507Q381 507 439.0 476.0Q497 445 530.0 388.5Q563 332 563 254V239Q563 161 530.0 104.0Q497 47 439.0 16.5Q381 -14 307 -14ZM307 78Q375 78 417.5 121.5Q460 165 460 242V251Q460 328 418.0 371.5Q376 415 307 415Q240 415 197.5 371.5Q155 328 155 251V242Q155 165 197.5 121.5Q240 78 307 78Z" fill="#ede7e7" /></g>
<g transform="translate(399.7319999999999,60) scale(0.018,-0.018)"><path d="M76 0V493H177V435H193Q205 466 231.5 480.5Q258 495 297 495H356V402H293Q243 402 211.0 374.5Q179 347 179 290V0Z" fill="#ede7e7" /></g>
<g transform="translate(411.8879999999999,60) scale(0.018,-0.018)"><path d="M76 0V493H177V435H193Q205 466 231.5 480.5Q258 495 297 495H356V402H293Q243 402 211.0 374.5Q179 347 179 290V0Z" fill="#ede7e7" /></g>
<g transform="translate(419.15399999999994,60) scale(0.018,-0.018)"><path d="M302 -14Q227 -14 171.0 17.5Q115 49 83.5 106.5Q52 164 52 240V252Q52 329 83.0 386.5Q114 444 169.5 475.5Q225 507 298 507Q369 507 422.5 475.5Q476 444 506.0 388.0Q536 332 536 257V218H157Q159 153 200.5 114.5Q242 76 304 76Q362 76 391.5 102.0Q421 128 437 162L522 118Q508 90 481.5 59.0Q455 28 412.0 7.0Q369 -14 302 -14ZM158 297H431Q427 353 391.0 384.5Q355 416 297 416Q239 416 202.5 384.5Q166 353 158 297Z" fill="#ede7e7" /></g>
<g transform="translate(429.96599999999995,60) scale(0.018,-0.018)"><path d="M229 -14Q176 -14 134.5 4.0Q93 22 68.5 57.0Q44 92 44 142Q44 193 68.5 226.5Q93 260 135.5 277.0Q178 294 232 294H382V326Q382 369 356.0 395.0Q330 421 276 421Q223 421 195.0 396.0Q167 371 158 331L62 362Q74 402 100.5 434.5Q127 467 171.0 487.0Q215 507 277 507Q373 507 428.0 458.0Q483 409 483 319V116Q483 86 511 86H553V0H476Q441 0 419.0 18.0Q397 36 397 67V70H382Q374 55 358.0 35.0Q342 15 311.0 0.5Q280 -14 229 -14ZM244 71Q306 71 344.0 106.5Q382 142 382 204V214H238Q197 214 172.0 196.5Q147 179 147 145Q147 111 173.0 91.0Q199 71 244 71Z" fill="#ede7e7" /></g>
<g transform="translate(440.65199999999993,60) scale(0.018,-0.018)"><path d="M305 -14Q234 -14 176.5 16.0Q119 46 85.5 103.0Q52 160 52 240V253Q52 333 85.5 389.5Q119 446 176.5 476.5Q234 507 305 507Q376 507 426.0 481.0Q476 455 506.5 412.0Q537 369 546 317L446 296Q441 329 425.0 356.0Q409 383 380.0 399.0Q351 415 307 415Q264 415 229.5 395.5Q195 376 175.0 339.5Q155 303 155 251V242Q155 190 175.0 153.0Q195 116 229.5 97.0Q264 78 307 78Q372 78 406.0 111.5Q440 145 449 197L549 174Q537 123 506.5 80.0Q476 37 426.0 11.5Q376 -14 305 -14Z" fill="#ede7e7" /></g>
<g transform="translate(451.60799999999995,60) scale(0.018,-0.018)"><path d="M76 0V700H179V423H195Q205 442 223.5 460.0Q242 478 272.5 489.5Q303 501 350 501Q406 501 449.5 476.0Q493 451 518.0 405.5Q543 360 543 296V0H440V288Q440 352 408.0 382.5Q376 413 320 413Q256 413 217.5 371.0Q179 329 179 249V0Z" fill="#ede7e7" /></g>
<g transform="translate(467.86799999999994,60) scale(0.018,-0.018)"><path d="M307 -14Q233 -14 175.5 16.5Q118 47 85.0 104.0Q52 161 52 239V254Q52 332 85.0 388.5Q118 445 175.5 476.0Q233 507 307 507Q381 507 439.0 476.0Q497 445 530.0 388.5Q563 332 563 254V239Q563 161 530.0 104.0Q497 47 439.0 16.5Q381 -14 307 -14ZM307 78Q375 78 417.5 121.5Q460 165 460 242V251Q460 328 418.0 371.5Q376 415 307 415Q240 415 197.5 371.5Q155 328 155 251V242Q155 165 197.5 121.5Q240 78 307 78Z" fill="#ede7e7" /></g>
<g transform="translate(479.23799999999994,60) scale(0.018,-0.018)"><path d="M265 -9Q209 -9 165.0 16.0Q121 41 96.0 87.0Q71 133 71 197V493H174V204Q174 140 206.0 109.5Q238 79 295 79Q358 79 396.5 121.5Q435 164 435 244V493H538V0H437V74H421Q407 44 371.0 17.5Q335 -9 265 -9Z" fill="#ede7e7" /></g>
<g transform="translate(490.5899999999999,60) scale(0.018,-0.018)"><path d="M261 0Q216 0 189.5 27.0Q163 54 163 99V406H27V493H163V656H266V493H413V406H266V117Q266 87 294 87H397V0Z" fill="#ede7e7" /></g>
    <g transform="translate(0,90) scale(0.018,-0.018)"><path d="M76 0V493H179V0ZM128 560Q98 560 77.5 579.5Q57 599 57 630Q57 661 77.5 680.5Q98 700 128 700Q159 700 179.0 680.5Q199 661 199 630Q199 599 179.0 579.5Q159 560 128 560Z" fill="#ede7e7" /></g>
<g transform="translate(4.9079999999999995,90) scale(0.018,-0.018)"><path d="M165 0V406H27V493H165V601Q165 646 192.0 673.0Q219 700 264 700H391V613H297Q268 613 268 583V493H410V406H268V0Z" fill="#ede7e7" /></g>
<g transform="translate(18.0,90) scale(0.018,-0.018)"><path d="M133 -200V-110H408Q436 -110 436 -80V72H420Q411 52 392.5 33.5Q374 15 343.0 3.0Q312 -9 265 -9Q209 -9 165.0 16.0Q121 41 96.0 87.0Q71 133 71 196V493H174V204Q174 140 206.0 109.5Q238 79 295 79Q358 79 396.5 121.0Q435 163 435 243V493H538V-101Q538 -146 511.5 -173.0Q485 -200 439 -200Z" fill="#ede7e7" /></g>
<g transform="translate(29.352,90) scale(0.018,-0.018)"><path d="M307 -14Q233 -14 175.5 16.5Q118 47 85.0 104.0Q52 161 52 239V254Q52 332 85.0 388.5Q118 445 175.5 476.0Q233 507 307 507Q381 507 439.0 476.0Q497 445 530.0 388.5Q563 332 563 254V239Q563 161 530.0 104.0Q497 47 439.0 16.5Q381 -14 307 -14ZM307 78Q375 78 417.5 121.5Q460 165 460 242V251Q460 328 418.0 371.5Q376 415 307 415Q240 415 197.5 371.5Q155 328 155 251V242Q155 165 197.5 121.5Q240 78 307 78Z" fill="#ede7e7" /></g>
<g transform="translate(40.722,90) scale(0.018,-0.018)"><path d="M265 -9Q209 -9 165.0 16.0Q121 41 96.0 87.0Q71 133 71 197V493H174V204Q174 140 206.0 109.5Q238 79 295 79Q358 79 396.5 121.5Q435 164 435 244V493H538V0H437V74H421Q407 44 371.0 17.5Q335 -9 265 -9Z" fill="#ede7e7" /></g>
<g transform="translate(56.964,90) scale(0.018,-0.018)"><path d="M130 0 46 493H149L211 69H227L313 493H480L565 69H581L643 493H746L662 0H489L404 423H388L303 0Z" fill="#ede7e7" /></g>
<g transform="translate(71.52,90) scale(0.018,-0.018)"><path d="M229 -14Q176 -14 134.5 4.0Q93 22 68.5 57.0Q44 92 44 142Q44 193 68.5 226.5Q93 260 135.5 277.0Q178 294 232 294H382V326Q382 369 356.0 395.0Q330 421 276 421Q223 421 195.0 396.0Q167 371 158 331L62 362Q74 402 100.5 434.5Q127 467 171.0 487.0Q215 507 277 507Q373 507 428.0 458.0Q483 409 483 319V116Q483 86 511 86H553V0H476Q441 0 419.0 18.0Q397 36 397 67V70H382Q374 55 358.0 35.0Q342 15 311.0 0.5Q280 -14 229 -14ZM244 71Q306 71 344.0 106.5Q382 142 382 204V214H238Q197 214 172.0 196.5Q147 179 147 145Q147 111 173.0 91.0Q199 71 244 71Z" fill="#ede7e7" /></g>
<g transform="translate(82.20599999999999,90) scale(0.018,-0.018)"><path d="M76 0V493H177V419H193Q207 449 243.0 475.0Q279 501 350 501Q406 501 449.5 476.0Q493 451 518.0 405.5Q543 360 543 296V0H440V288Q440 352 408.0 382.5Q376 413 320 413Q256 413 217.5 371.0Q179 329 179 249V0Z" fill="#ede7e7" /></g>
<g transform="translate(93.576,90) scale(0.018,-0.018)"><path d="M261 0Q216 0 189.5 27.0Q163 54 163 99V406H27V493H163V656H266V493H413V406H266V117Q266 87 294 87H397V0Z" fill="#ede7e7" /></g>
<g transform="translate(107.00999999999999,90) scale(0.018,-0.018)"><path d="M261 0Q216 0 189.5 27.0Q163 54 163 99V406H27V493H163V656H266V493H413V406H266V117Q266 87 294 87H397V0Z" fill="#ede7e7" /></g>
<g transform="translate(115.55399999999999,90) scale(0.018,-0.018)"><path d="M307 -14Q233 -14 175.5 16.5Q118 47 85.0 104.0Q52 161 52 239V254Q52 332 85.0 388.5Q118 445 175.5 476.0Q233 507 307 507Q381 507 439.0 476.0Q497 445 530.0 388.5Q563 332 563 254V239Q563 161 530.0 104.0Q497 47 439.0 16.5Q381 -14 307 -14ZM307 78Q375 78 417.5 121.5Q460 165 460 242V251Q460 328 418.0 371.5Q376 415 307 415Q240 415 197.5 371.5Q155 328 155 251V242Q155 165 197.5 121.5Q240 78 307 78Z" fill="#ede7e7" /></g>
<g transform="translate(131.814,90) scale(0.018,-0.018)"><path d="M361 -14Q289 -14 250.5 12.0Q212 38 193 70H177V0H76V700H179V426H195Q207 446 227.0 464.5Q247 483 280.0 495.0Q313 507 361 507Q423 507 475.0 477.0Q527 447 558.0 390.0Q589 333 589 254V239Q589 159 557.5 102.5Q526 46 474.5 16.0Q423 -14 361 -14ZM331 76Q398 76 441.5 119.0Q485 162 485 242V251Q485 330 442.0 373.0Q399 416 331 416Q265 416 221.5 373.0Q178 330 178 251V242Q178 162 221.5 119.0Q265 76 331 76Z" fill="#ede7e7" /></g>
<g transform="translate(143.652,90) scale(0.018,-0.018)"><path d="M265 -9Q209 -9 165.0 16.0Q121 41 96.0 87.0Q71 133 71 197V493H174V204Q174 140 206.0 109.5Q238 79 295 79Q358 79 396.5 121.5Q435 164 435 244V493H538V0H437V74H421Q407 44 371.0 17.5Q335 -9 265 -9Z" fill="#ede7e7" /></g>
<g transform="translate(155.004,90) scale(0.018,-0.018)"><path d="M76 0V493H179V0ZM128 560Q98 560 77.5 579.5Q57 599 57 630Q57 661 77.5 680.5Q98 700 128 700Q159 700 179.0 680.5Q199 661 199 630Q199 599 179.0 579.5Q159 560 128 560Z" fill="#ede7e7" /></g>
<g transform="translate(159.91199999999998,90) scale(0.018,-0.018)"><path d="M76 0V700H179V0Z" fill="#ede7e7" /></g>
<g transform="translate(164.81999999999996,90) scale(0.018,-0.018)"><path d="M280 -14Q219 -14 167.0 16.0Q115 46 83.5 102.5Q52 159 52 239V254Q52 333 83.0 390.0Q114 447 166.0 477.0Q218 507 280 507Q328 507 360.5 495.0Q393 483 414.0 464.5Q435 446 446 426H462V700H565V0H464V70H448Q429 38 390.5 12.0Q352 -14 280 -14ZM309 76Q376 76 419.5 119.0Q463 162 463 242V251Q463 330 420.0 373.0Q377 416 309 416Q243 416 199.5 373.0Q156 330 156 251V242Q156 162 199.5 119.0Q243 76 309 76Z" fill="#ede7e7" /></g>
<g transform="translate(181.54799999999994,90) scale(0.018,-0.018)"><path d="M278 -14Q184 -14 122.0 28.0Q60 70 46 155L142 178Q150 137 169.0 113.0Q188 89 216.5 79.0Q245 69 278 69Q327 69 353.5 88.0Q380 107 380 137Q380 167 355.0 181.0Q330 195 281 204L247 210Q197 219 156.0 236.0Q115 253 91.0 283.0Q67 313 67 360Q67 430 119.0 468.5Q171 507 257 507Q340 507 393.5 469.5Q447 432 463 368L367 341Q358 386 329.0 404.5Q300 423 257 423Q215 423 191.0 407.5Q167 392 167 364Q167 334 190.5 320.0Q214 306 254 299L289 293Q342 284 386.0 268.0Q430 252 455.5 222.0Q481 192 481 142Q481 68 426.0 27.0Q371 -14 278 -14Z" fill="#ede7e7" /></g>
<g transform="translate(191.29799999999994,90) scale(0.018,-0.018)"><path d="M307 -14Q233 -14 175.5 16.5Q118 47 85.0 104.0Q52 161 52 239V254Q52 332 85.0 388.5Q118 445 175.5 476.0Q233 507 307 507Q381 507 439.0 476.0Q497 445 530.0 388.5Q563 332 563 254V239Q563 161 530.0 104.0Q497 47 439.0 16.5Q381 -14 307 -14ZM307 78Q375 78 417.5 121.5Q460 165 460 242V251Q460 328 418.0 371.5Q376 415 307 415Q240 415 197.5 371.5Q155 328 155 251V242Q155 165 197.5 121.5Q240 78 307 78Z" fill="#ede7e7" /></g>
<g transform="translate(202.66799999999995,90) scale(0.018,-0.018)"><path d="M76 0V493H177V435H193Q207 461 238.0 481.0Q269 501 322 501Q377 501 410.5 478.5Q444 456 461 421H477Q494 455 526.5 478.0Q559 501 619 501Q667 501 704.0 481.5Q741 462 763.0 423.5Q785 385 785 328V0H682V320Q682 365 657.5 389.5Q633 414 588 414Q540 414 511.0 383.0Q482 352 482 294V0H379V320Q379 365 354.5 389.5Q330 414 285 414Q237 414 208.0 383.0Q179 352 179 294V0Z" fill="#ede7e7" /></g>
<g transform="translate(218.39399999999995,90) scale(0.018,-0.018)"><path d="M302 -14Q227 -14 171.0 17.5Q115 49 83.5 106.5Q52 164 52 240V252Q52 329 83.0 386.5Q114 444 169.5 475.5Q225 507 298 507Q369 507 422.5 475.5Q476 444 506.0 388.0Q536 332 536 257V218H157Q159 153 200.5 114.5Q242 76 304 76Q362 76 391.5 102.0Q421 128 437 162L522 118Q508 90 481.5 59.0Q455 28 412.0 7.0Q369 -14 302 -14ZM158 297H431Q427 353 391.0 384.5Q355 416 297 416Q239 416 202.5 384.5Q166 353 158 297Z" fill="#ede7e7" /></g>
<g transform="translate(229.20599999999996,90) scale(0.018,-0.018)"><path d="M261 0Q216 0 189.5 27.0Q163 54 163 99V406H27V493H163V656H266V493H413V406H266V117Q266 87 294 87H397V0Z" fill="#ede7e7" /></g>
<g transform="translate(237.74999999999997,90) scale(0.018,-0.018)"><path d="M76 0V700H179V423H195Q205 442 223.5 460.0Q242 478 272.5 489.5Q303 501 350 501Q406 501 449.5 476.0Q493 451 518.0 405.5Q543 360 543 296V0H440V288Q440 352 408.0 382.5Q376 413 320 413Q256 413 217.5 371.0Q179 329 179 249V0Z" fill="#ede7e7" /></g>
<g transform="translate(249.11999999999998,90) scale(0.018,-0.018)"><path d="M76 0V493H179V0ZM128 560Q98 560 77.5 579.5Q57 599 57 630Q57 661 77.5 680.5Q98 700 128 700Q159 700 179.0 680.5Q199 661 199 630Q199 599 179.0 579.5Q159 560 128 560Z" fill="#ede7e7" /></g>
<g transform="translate(254.02799999999996,90) scale(0.018,-0.018)"><path d="M76 0V493H177V419H193Q207 449 243.0 475.0Q279 501 350 501Q406 501 449.5 476.0Q493 451 518.0 405.5Q543 360 543 296V0H440V288Q440 352 408.0 382.5Q376 413 320 413Q256 413 217.5 371.0Q179 329 179 249V0Z" fill="#ede7e7" /></g>
<g transform="translate(265.39799999999997,90) scale(0.018,-0.018)"><path d="M52 244V259Q52 337 83.5 392.0Q115 447 167.0 477.0Q219 507 281 507Q353 507 391.5 480.0Q430 453 448 422H464V493H564V-101Q564 -146 537.5 -173.0Q511 -200 465 -200H133V-110H433Q462 -110 462 -80V77H446Q435 59 415.0 40.0Q395 21 362.5 9.0Q330 -3 281 -3Q219 -3 166.5 26.5Q114 56 83.0 111.5Q52 167 52 244ZM309 87Q376 87 419.5 129.5Q463 172 463 247V256Q463 333 420.0 374.5Q377 416 309 416Q243 416 199.5 374.5Q156 333 156 256V247Q156 172 199.5 129.5Q243 87 309 87Z" fill="#ede7e7" /></g>
<g transform="translate(282.10799999999995,90) scale(0.018,-0.018)"><path d="M261 0Q216 0 189.5 27.0Q163 54 163 99V406H27V493H163V656H266V493H413V406H266V117Q266 87 294 87H397V0Z" fill="#ede7e7" /></g>
<g transform="translate(290.65199999999993,90) scale(0.018,-0.018)"><path d="M307 -14Q233 -14 175.5 16.5Q118 47 85.0 104.0Q52 161 52 239V254Q52 332 85.0 388.5Q118 445 175.5 476.0Q233 507 307 507Q381 507 439.0 476.0Q497 445 530.0 388.5Q563 332 563 254V239Q563 161 530.0 104.0Q497 47 439.0 16.5Q381 -14 307 -14ZM307 78Q375 78 417.5 121.5Q460 165 460 242V251Q460 328 418.0 371.5Q376 415 307 415Q240 415 197.5 371.5Q155 328 155 251V242Q155 165 197.5 121.5Q240 78 307 78Z" fill="#ede7e7" /></g>
<g transform="translate(302.02199999999993,90) scale(0.018,-0.018)"><path d="M52 244V259Q52 337 83.5 392.0Q115 447 167.0 477.0Q219 507 281 507Q353 507 391.5 480.0Q430 453 448 422H464V493H564V-101Q564 -146 537.5 -173.0Q511 -200 465 -200H133V-110H433Q462 -110 462 -80V77H446Q435 59 415.0 40.0Q395 21 362.5 9.0Q330 -3 281 -3Q219 -3 166.5 26.5Q114 56 83.0 111.5Q52 167 52 244ZM309 87Q376 87 419.5 129.5Q463 172 463 247V256Q463 333 420.0 374.5Q377 416 309 416Q243 416 199.5 374.5Q156 333 156 256V247Q156 172 199.5 129.5Q243 87 309 87Z" fill="#ede7e7" /></g>
<g transform="translate(313.8419999999999,90) scale(0.018,-0.018)"><path d="M302 -14Q227 -14 171.0 17.5Q115 49 83.5 106.5Q52 164 52 240V252Q52 329 83.0 386.5Q114 444 169.5 475.5Q225 507 298 507Q369 507 422.5 475.5Q476 444 506.0 388.0Q536 332 536 257V218H157Q159 153 200.5 114.5Q242 76 304 76Q362 76 391.5 102.0Q421 128 437 162L522 118Q508 90 481.5 59.0Q455 28 412.0 7.0Q369 -14 302 -14ZM158 297H431Q427 353 391.0 384.5Q355 416 297 416Q239 416 202.5 384.5Q166 353 158 297Z" fill="#ede7e7" /></g>
<g transform="translate(324.65399999999994,90) scale(0.018,-0.018)"><path d="M261 0Q216 0 189.5 27.0Q163 54 163 99V406H27V493H163V656H266V493H413V406H266V117Q266 87 294 87H397V0Z" fill="#ede7e7" /></g>
<g transform="translate(333.1979999999999,90) scale(0.018,-0.018)"><path d="M76 0V700H179V423H195Q205 442 223.5 460.0Q242 478 272.5 489.5Q303 501 350 501Q406 501 449.5 476.0Q493 451 518.0 405.5Q543 360 543 296V0H440V288Q440 352 408.0 382.5Q376 413 320 413Q256 413 217.5 371.0Q179 329 179 249V0Z" fill="#ede7e7" /></g>
<g transform="translate(344.5679999999999,90) scale(0.018,-0.018)"><path d="M302 -14Q227 -14 171.0 17.5Q115 49 83.5 106.5Q52 164 52 240V252Q52 329 83.0 386.5Q114 444 169.5 475.5Q225 507 298 507Q369 507 422.5 475.5Q476 444 506.0 388.0Q536 332 536 257V218H157Q159 153 200.5 114.5Q242 76 304 76Q362 76 391.5 102.0Q421 128 437 162L522 118Q508 90 481.5 59.0Q455 28 412.0 7.0Q369 -14 302 -14ZM158 297H431Q427 353 391.0 384.5Q355 416 297 416Q239 416 202.5 384.5Q166 353 158 297Z" fill="#ede7e7" /></g>
<g transform="translate(355.37999999999994,90) scale(0.018,-0.018)"><path d="M76 0V493H177V435H193Q205 466 231.5 480.5Q258 495 297 495H356V402H293Q243 402 211.0 374.5Q179 347 179 290V0Z" fill="#ede7e7" /></g>
<g transform="translate(362.64599999999996,90) scale(0.018,-0.018)"><path d="M138 -14Q103 -14 79.5 9.0Q56 32 56 68Q56 104 79.5 126.5Q103 149 138 149Q173 149 196.5 126.0Q220 103 220 68Q220 32 196.5 9.0Q173 -14 138 -14Z" fill="#ede7e7" /></g>
  </g>
</svg>
